<?xml version="1.0" encoding="UTF-8"?>
<svg width="775px" height="62px" viewBox="0 0 775 62" version="1.1" xmlns="http://www.w3.org/2000/svg" xmlns:xlink="http://www.w3.org/1999/xlink">
    <!-- Generator: Sketch 52.4 (67378) - http://www.bohemiancoding.com/sketch -->
    <title>Group 3</title>
    <desc>Created with Sketch.</desc>
    <g id="Page-1" stroke="none" stroke-width="1" fill="none" fill-rule="evenodd" opacity="0.88155692">
        <g id="Artboard" transform="translate(-1672.000000, -643.000000)">
            <g id="Group-3" transform="translate(1672.000000, 643.000000)">
                <g id="Group-2">
                    <rect id="Rectangle" fill="#6C02A4" x="62" y="0" width="31" height="31"></rect>
                    <rect id="Rectangle-Copy-44" fill="#6C02A4" x="31" y="31" width="31" height="31"></rect>
                    <rect id="Rectangle-Copy-45" fill="#6C02A4" x="0" y="0" width="31" height="31"></rect>
                    <rect id="Rectangle-Copy-2" fill="#6C02A4" x="93" y="31" width="31" height="31"></rect>
                    <rect id="Rectangle-Copy-5" fill="#6C02A4" x="124" y="0" width="31" height="31"></rect>
                    <rect id="Rectangle-Copy-6" fill="#6C02A4" x="155" y="31" width="31" height="31"></rect>
                    <rect id="Rectangle-Copy-9" fill="#6C02A4" x="186" y="0" width="31" height="31"></rect>
                    <rect id="Rectangle-Copy-10" fill="#6C02A4" x="217" y="31" width="31" height="31"></rect>
                    <rect id="Rectangle-Copy-13" fill="#6C02A4" x="248" y="0" width="31" height="31"></rect>
                    <rect id="Rectangle-Copy-14" fill="#6C02A4" x="279" y="31" width="31" height="31"></rect>
                    <rect id="Rectangle-Copy-17" fill="#6C02A4" x="310" y="0" width="31" height="31"></rect>
                    <rect id="Rectangle-Copy-19" fill="#6C02A4" x="341" y="31" width="31" height="31"></rect>
                    <rect id="Rectangle-Copy-20" fill="#6C02A4" x="372" y="0" width="31" height="31"></rect>
                    <rect id="Rectangle-Copy-23" fill="#6C02A4" x="403" y="31" width="31" height="31"></rect>
                    <rect id="Rectangle-Copy-24" fill="#6C02A4" x="434" y="0" width="31" height="31"></rect>
                    <rect id="Rectangle-Copy-27" fill="#6C02A4" x="465" y="31" width="31" height="31"></rect>
                    <rect id="Rectangle-Copy-28" fill="#6C02A4" x="496" y="0" width="31" height="31"></rect>
                    <rect id="Rectangle-Copy-31" fill="#6C02A4" x="527" y="31" width="31" height="31"></rect>
                    <rect id="Rectangle-Copy-33" fill="#6C02A4" x="558" y="0" width="31" height="31"></rect>
                    <rect id="Rectangle-Copy-34" fill="#6C02A4" x="589" y="31" width="31" height="31"></rect>
                    <rect id="Rectangle-Copy-37" fill="#6C02A4" x="620" y="0" width="31" height="31"></rect>
                    <rect id="Rectangle-Copy-38" fill="#6C02A4" x="651" y="31" width="31" height="31"></rect>
                    <rect id="Rectangle-Copy-41" fill="#6C02A4" x="682" y="0" width="31" height="31"></rect>
                    <rect id="Rectangle-Copy" fill="#A302A4" x="62" y="31" width="31" height="31"></rect>
                    <rect id="Rectangle-Copy-3" fill="#A302A4" x="93" y="0" width="31" height="31"></rect>
                    <rect id="Rectangle-Copy-4" fill="#A302A4" x="124" y="31" width="31" height="31"></rect>
                    <rect id="Rectangle-Copy-7" fill="#A302A4" x="155" y="0" width="31" height="31"></rect>
                    <rect id="Rectangle-Copy-8" fill="#A302A4" x="186" y="31" width="31" height="31"></rect>
                    <rect id="Rectangle-Copy-11" fill="#A302A4" x="217" y="0" width="31" height="31"></rect>
                    <rect id="Rectangle-Copy-12" fill="#A302A4" x="248" y="31" width="31" height="31"></rect>
                    <rect id="Rectangle-Copy-15" fill="#A302A4" x="279" y="0" width="31" height="31"></rect>
                    <rect id="Rectangle-Copy-16" fill="#A302A4" x="310" y="31" width="31" height="31"></rect>
                    <rect id="Rectangle-Copy-18" fill="#A302A4" x="341" y="0" width="31" height="31"></rect>
                    <rect id="Rectangle-Copy-21" fill="#A302A4" x="372" y="31" width="31" height="31"></rect>
                    <rect id="Rectangle-Copy-22" fill="#A302A4" x="403" y="0" width="31" height="31"></rect>
                    <rect id="Rectangle-Copy-25" fill="#A302A4" x="434" y="31" width="31" height="31"></rect>
                    <rect id="Rectangle-Copy-26" fill="#A302A4" x="465" y="0" width="31" height="31"></rect>
                    <rect id="Rectangle-Copy-29" fill="#A302A4" x="496" y="31" width="31" height="31"></rect>
                    <rect id="Rectangle-Copy-30" fill="#A302A4" x="527" y="0" width="31" height="31"></rect>
                    <rect id="Rectangle-Copy-32" fill="#A302A4" x="558" y="31" width="31" height="31"></rect>
                    <rect id="Rectangle-Copy-35" fill="#A302A4" x="589" y="0" width="31" height="31"></rect>
                    <rect id="Rectangle-Copy-36" fill="#A302A4" x="620" y="31" width="31" height="31"></rect>
                    <rect id="Rectangle-Copy-39" fill="#A302A4" x="651" y="0" width="31" height="31"></rect>
                    <rect id="Rectangle-Copy-40" fill="#A302A4" x="682" y="31" width="31" height="31"></rect>
                    <rect id="Rectangle-Copy-42" fill="#A302A4" x="713" y="0" width="31" height="31"></rect>
                    <rect id="Rectangle-Copy-43" fill="#A302A4" x="744" y="31" width="31" height="31"></rect>
                </g>
            </g>
        </g>
    </g>
</svg>