<svg id="Слой_1" data-name="Слой 1" xmlns="http://www.w3.org/2000/svg" viewBox="0 0 1007.86 1349.57"><defs><style>.cls-1{fill:#7000c6;}</style></defs><title>patternline2</title><path class="cls-1" d="M63.55,1.14C81,29.13,78.49,63.41,80.5,95a211.55,211.55,0,0,0,9,50.39c5.54,17.65,12.89,34.67,19.39,52,13.46,35.83,24.55,72.48,35.37,109.18,10.87,36.88,21.88,73.76,30.53,111.24,8.55,37,14.74,74.66,15.44,112.69a363.34,363.34,0,0,1-3.49,57.84c-2.59,18.34-5.89,36.83-4.39,55.42,1.46,18.15,6.66,35.62,12.47,52.78,6,17.86,12.3,35.64,18,53.6,11.65,36.4,21.87,73.64,26,111.72a315.61,315.61,0,0,1,1.33,56c-1.35,19.24-5.1,38.15-9.44,56.91-4.23,18.29-9,36.47-12.48,54.92-2.84,14.91-7.76,35,5.87,46.27,5.32,4.39,12.32,6.33,19,4,7.24-2.53,4.13-14.13-3.19-11.57s-12.05-5.23-12.75-11.56c-1-8.86,1.56-18.32,3.27-27,3.64-18.42,8.42-36.59,12.59-54.9,8.22-36.08,11.87-72.09,8.27-109-3.62-37.15-12.72-73.49-23.75-109.07-5.51-17.8-11.51-35.45-17.58-53.06-5.93-17.24-12.17-34.63-14.8-52.75-2.7-18.56-.11-37.06,2.56-55.45a401.89,401.89,0,0,0,4.56-55.86c.2-37-4.94-73.8-12.56-109.89-7.81-37-18.3-73.34-28.94-109.59-10.58-36.05-21.13-72.14-33.61-107.59-11.87-33.71-29-66.91-33.4-102.73C90,78.68,93.78,46,83.61,15.72a97.22,97.22,0,0,0-9.7-20.64c-4.08-6.53-14.47-.52-10.36,6.06Z" transform="translate(36.67 27.26)"/><path class="cls-1" d="M21.85-7.27c2.16,20.6,14.3,37.1,22.36,55.61,7.84,18,12,37.45,15,56.78C65.3,144.51,66.15,185.41,80.74,223c7.59,19.57,19.19,36.84,30.14,54.63s19.52,36.08,24,56.6c4.63,21,5.63,42.63,6,64.09.4,22.56.43,45.13.62,67.69q.6,70.44,1.18,140.89c.36,42.39.56,86.25,17.57,125.89,8.07,18.81,20.15,35.59,28.19,54.41,8.83,20.66,8.61,42.41,8.19,64.46-.46,23.41-.72,46.83-1.36,70.23-.22,7.88-.53,18.92-8.3,23.4-6.34,3.66-14.9,1.14-20.28-3.15-15.2-12.11-11.52-38.23-9.61-55,2.5-22,7.39-43.7,8.58-65.84,1-19.44-.83-39.41-8.6-57.43-7.65-17.77-21.32-31.3-36.88-42.38-7.68-5.48-15.78-10.34-23.91-15.12A6.06,6.06,0,0,0,87.5,710c-6.07,22.37,9.55,40.67,21.5,57.77,6.53,9.34,12.9,19.32,14.28,30.89,1.85,15.5-3.52,31-8.38,45.43-2.46,7.34,9.12,10.49,11.57,3.19,4.77-14.18,9.52-29,9.11-44.09-.35-12.64-4.89-24-11.59-34.58-10.12-15.94-30.56-34.63-24.92-55.41l-8.81,3.58c16.74,9.86,34,20.23,46.24,35.69,12.62,16,17.08,36.39,17.44,56.37.39,22.06-4,43.72-7.14,65.45-2.84,19.93-6.64,42.85,1.43,62.06,6.48,15.44,24.12,27.42,41.12,21.05,19.66-7.37,17.89-31.87,18.22-48.93.46-23.66,1.22-47.34,1.31-71,.05-11.43-.46-22.92-2.76-34.15-2.08-10.16-6-19.84-10.52-29.13-9.34-19.07-21.55-36.59-28.5-56.8-7-20.38-9.94-41.84-11.21-63.27-1.35-22.64-1.15-45.36-1.34-68l-.61-72.43-.6-71.43c-.18-22.39,0-44.84-1.23-67.2-1.23-21.46-4-43.14-11.11-63.54s-18.73-38.13-30-56.26c-11-17.74-20-35.83-25.34-56.11-5.26-20-7.77-40.51-10.18-61s-4.7-40.95-9.42-61-12.74-37.84-22.13-56c-4.63-8.93-9-18.27-10.07-28.39-.8-7.6-12.81-7.69-12,0Z" transform="translate(36.67 27.26)"/><path class="cls-1" d="M-10.93,6.53C23.16,32,24.36,82.52,29.48,120.84c6.09,45.58,14.23,91.71,34.62,133.36a208.51,208.51,0,0,0,20.24,33.29c7.62,10.17,17.59,19.64,20.71,32.35l7.38-7.38A109.65,109.65,0,0,1,42.88,263.1c-8.9-14.42-13.37-30.28-15.79-47-2.56-17.69-3.35-35.75-8.35-53S4.91,130.08-9.87,119.49c-4.09-2.93-8.61,1.14-9,5.18C-24.33,176.35-23.08,230-12.49,281c4.34,20.89,13,40.07,31.2,52.31,16.85,11.35,37.58,15.23,57.16,19,10.76,2.1,23.67,3.47,28.57,14.85,4.11,9.58,2.64,21.27,1.13,31.25l7.38-4.19-88.8-15.7C13.89,376.71.2,372.6-8.1,381.43S-10.64,404-3,411.2c14.82,14.11,36.41,14.4,55.32,18.2,9.27,1.87,18.85,4.56,26.1,11,8.42,7.43,12.6,18.1,15.18,28.77,3.28,13.61,4.33,27.72,6,41.58l6,50.87,11.18-3c-28.84-47.19-84.18-66.27-134.18-82.09-7.38-2.34-10.54,9.24-3.19,11.57,46.8,14.8,100,32.3,127,76.57,2.85,4.67,11.92,3.22,11.18-3-3.18-26.94-5.82-54-9.67-80.87C105,460.65,99,439.5,81.31,427.55c-16.17-10.93-36.63-10.53-55-14.92-8.34-2-16.86-5.12-22.67-11.75-2.3-2.63-6.1-8.67-2.55-11.72s11-.63,15,.07l93.68,16.56c2.89.51,6.86-.75,7.38-4.19,2.75-18.16,4.37-41.22-13-52.9-9-6-20.58-7.05-30.93-9.11-10-2-20.06-4.17-29.73-7.54-9.19-3.21-18.16-7.71-25.3-14.42-8-7.57-12.95-17.39-16.09-27.87-7.19-24-9.35-50.13-10.92-75A536.79,536.79,0,0,1-6.9,124.67l-9,5.18c29.31,21,26.94,63.52,32.33,95.08s21.73,58.91,47.26,78.17A117.39,117.39,0,0,0,109.24,324a6.07,6.07,0,0,0,7.38-7.38c-2.87-11.7-10.46-20.82-17.84-30a200.55,200.55,0,0,1-19.85-29.86C67.71,236.16,60,213.88,54.29,191.17c-5.89-23.38-9.72-47.24-12.92-71.12C38.45,98.14,36.56,75.93,30.92,54.5c-6-22.77-16.61-44-35.79-58.33C-11.06-8.46-17,2-10.93,6.53Z" transform="translate(36.67 27.26)"/><path class="cls-1" d="M-31.5,531c32.67,10.25,60.24,31.33,86,53.26,21.77,18.56,53.1,40.88,54,72.42l9-5.18a212.25,212.25,0,0,0-149.8-19.11,6.06,6.06,0,0,0-4.19,7.38c5.43,19,23.21,28.15,40.07,35.41,8.75,3.76,17.64,7.25,25.78,12.25a99.49,99.49,0,0,1,22.77,19.46A108.56,108.56,0,0,1,77.1,760.22a94.7,94.7,0,0,1,.23,29.68c-2,12.89-6.84,25.24-6.49,38.45.67,25.91,15.18,50.34,25.69,73.34l17.87,39.08c5,10.92,10,21.87,17.66,31.23,7.79,9.52,18.67,15.49,27.3,24.11,8,8,13.15,18.33,16.36,29.1,7.2,24.16,5,49.55,7,74.37a149.94,149.94,0,0,0,9.6,42.83c5.36,13.67,12.14,26.72,18.68,39.85q21.15,42.39,42.29,84.77c3.45,6.91,13.8.84,10.36-6.06q-18.93-38-37.88-75.94c-11.55-23.15-24.92-46.31-29.42-72.11-4.43-25.4-1.46-51.47-5.86-76.91a104.61,104.61,0,0,0-10.66-32.14c-5.6-10.28-13.49-18.14-22.65-25.27-9.95-7.73-18-15.51-24.14-26.68s-11.1-23.29-16.44-35L99.18,878.76c-5.58-12.21-11.58-24.44-14.63-37.6-3.14-13.59-.57-25.73,2.52-39a114,114,0,0,0,3.15-31,118.7,118.7,0,0,0-17.77-56.83,113.29,113.29,0,0,0-49.2-43.65c-16.8-7.64-42.38-14-48.14-34.1L-29.08,644a199.36,199.36,0,0,1,140.55,17.9c3.88,2.07,9.17-.47,9-5.18-.79-26.63-19.32-47.12-38.1-64-21.11-19-43-37.9-67.14-52.93a191.07,191.07,0,0,0-43.57-20.33c-7.38-2.31-10.54,9.27-3.19,11.58Z" transform="translate(36.67 27.26)"/><path class="cls-1" d="M-20.73,703.67c17.05,0,31.2,11,40.31,24.74,11.18,16.9,14.23,36.8,15.41,56.66,1.3,21.74,1.18,43.42,5.48,64.87,4.15,20.72,11.38,40.64,19.78,60,8.5,19.59,18.22,38.68,28.17,57.56,4.32,8.2,9,16.19,14.91,23.35,6.09,7.39,13.44,12.48,21.77,17,3.85,2.1,7.49,4.22,9.84,8,2.44,4,3.64,8.69,4.95,13.13,2.52,8.56,4.51,17.26,6.18,26,3.43,18,5.52,36.26,8,54.43,5.33,39.25,13.07,79.28,39.49,110.3,5,5.89,13.47-2.63,8.48-8.48-23.65-27.77-30.72-64.56-35.66-99.66-2.59-18.41-4.63-36.91-7.9-55.23-1.61-9.05-3.52-18.05-6-26.92s-4.82-18.57-11.46-25.14c-6.4-6.34-15.48-8.79-22.22-14.7-7.18-6.3-12.38-14.32-17-22.59-10.38-18.6-19.88-37.92-28.62-57.33-8.85-19.67-16.37-40.06-20.8-61.21-4.64-22.19-4-44.71-5.65-67.21-1.56-21.87-5.72-43.88-18.89-61.95C16.31,703.51-.55,691.7-20.73,691.67c-7.73,0-7.74,12,0,12Z" transform="translate(36.67 27.26)"/><path class="cls-1" d="M-13.77,797.41,56.16,975.69c5.13,13,9.29,27.68,18.15,38.8,8,10.08,20.1,15.34,29,24.48,9.15,9.44,11.73,23,13.65,35.51,2.36,15.46,4.18,31,5.73,46.59a1047,1047,0,0,1,5.11,106.24c0,7.72,12,7.73,12,0q.12-48.29-4.18-96.43-2.1-23.39-5.26-46.64c-1.8-13.32-3.29-27-8.88-39.39-5.5-12.17-15.2-19.5-25.71-27.11-5.25-3.8-10.33-7.86-14-13.29-3.9-5.83-6.38-12.46-8.92-19q-17.51-44.57-35-89.14L-2.2,794.22c-2.79-7.11-14.4-4-11.57,3.19Z" transform="translate(36.67 27.26)"/><path class="cls-1" d="M-18.68,885.49C-14.79,909.08-.09,928.28,13.78,947c6.93,9.35,13.82,18.82,19.26,29.14,6.41,12.17,10.15,25.45,14.34,38.49a251.73,251.73,0,0,0,15.46,37.61C69,1064.24,75.7,1076,81,1088.36c11.63,27,12.19,56.29,12.15,85.25q-.06,51.51-2.1,103c-.3,7.72,11.7,7.71,12,0q1.83-46.52,2.07-93.07c.15-28.91.86-58.85-8.16-86.68-8.46-26.09-25-48.54-34.29-74.27-4.8-13.3-8.29-27.05-13.64-40.16a158.86,158.86,0,0,0-17.73-31.58C16.25,929.45-2.7,909-7.11,882.3c-1.25-7.6-12.82-4.38-11.57,3.19Z" transform="translate(36.67 27.26)"/><path class="cls-1" d="M-20.33,972.68c2.3,15.61,11.86,28.39,21.94,40,11,12.65,21.77,24.85,30.16,39.47,18,31.37,26.4,67.32,29.87,103,2.19,22.56,2.58,45.24,2.61,67.89l10.24-4.24c-10.4-11.07-12.86-26.83-17-40.88a267.11,267.11,0,0,0-16.24-41.52,267.75,267.75,0,0,0-53.11-73.36c-3.81-3.73-10-.9-10.24,4.25-.95,23.13-1.45,47.29,5.86,69.56A81.27,81.27,0,0,0,.32,1166.18c7.34,8.13,18.39,14.54,21.93,25.41,1.9,5.82,9.57,5.56,11.57,0,6.22-17.23,1.75-36.77-10.76-50-5.32-5.62-13.79,2.88-8.49,8.49a37.12,37.12,0,0,1,7.68,38.32H33.82c-3.61-11.06-12.11-18.18-20.28-25.92a68,68,0,0,1-17.76-27.39c-7.53-21.63-6.84-45.2-5.91-67.76l-10.24,4.24a257.82,257.82,0,0,1,52.67,73.91,258.65,258.65,0,0,1,15.37,41.93c3.94,14.32,7.9,28.81,18.33,39.91,3.6,3.83,10.25.85,10.25-4.24,0-39.32-1.27-79.11-10.77-117.46-8.39-33.85-23.43-65.28-46.57-91.5-11.67-13.22-25-26.41-27.66-44.63-1.12-7.61-12.69-4.37-11.58,3.19Z" transform="translate(36.67 27.26)"/><path class="cls-1" d="M103.26-13.47c13.26,99.59,32.25,199,70.48,292.35,9.52,23.23,19.82,46.17,28.15,69.87a387.39,387.39,0,0,1,17.67,72.4c7.22,49.35,5.47,99.22,3.07,148.86-2.2,45.36-2.39,94.8,27.67,131.93,3.19,3.95,8.49,1,10-2.64,17.74-42.14,34.07-85,27.9-131.5-3-22.41-9.38-44.12-13.55-66.3-4.12-21.92-5.58-44.24-6.58-66.49-1.94-42.95-1.88-86.91-14.49-128.42-6.19-20.37-15.93-39.08-26.84-57.28S204,213.15,196,193.36c-12.76-31.89-13.09-79.61,21.8-97.71L209,88.87c-4.87,30.67-9.86,62.85-.86,93.26,7.68,26,25.19,47,41.7,67.89,17.53,22.19,32,44.82,37.56,73,5.71,28.62,3.72,58.22,2.4,87.16-1.52,33.15-2.54,66.85,6.69,99.09,1.94,6.76,11.25,5,11.79-1.6,1.3-16,11-29.49,20-42.2s17.28-25.32,22.62-40c10.93-30,9.87-63,4.59-94.07-5.35-31.43-14.46-63.17-27.43-92.33a177.87,177.87,0,0,0-22.85-38.5C295.48,188.2,283.69,179,270.94,170c-14.39-10.19-25.61-21.67-28.61-39.66-2.65-15.91,1.66-32.86,12.5-44.91l-9.43-1.22c50,66.15,98.15,137.57,114.68,220.23,8.06,40.3,8.33,82.7-2.87,122.43-5.77,20.49-15.37,39-24.7,58.05-9.14,18.63-16.15,37.36-18.49,58.1-2.48,22-.76,44.18-2.74,66.2-1.88,20.79-8.8,40-17.85,58.64-8.68,17.91-18.48,35.29-25.75,53.86-7.86,20-11.19,40.34-8.34,61.77,3,22.69,8.12,44.9,10.19,67.75A492.16,492.16,0,0,1,271,918.16c-.52,11.16-1,22.54-3.22,33.52-2.09,10.42-6.42,19.19-12.06,28.09-4.75,7.49-9.7,15.17-11.88,23.87-2.28,9.15-1.34,18.68,1.41,27.61,5.67,18.4,16.63,34.35,20.57,53.42,3.54,17.11,3.39,34.8,2.77,52.19-1.18,33.4-5.61,69.22,8,100.84a92,92,0,0,0,12.85,21.1c4.82,6,13.26-2.51,8.49-8.49-21.93-27.49-19.47-65-18-98,.8-17.5,1.7-35.11.09-52.59a146.7,146.7,0,0,0-14.09-50.23c-4.33-9.14-9.12-18.38-10.87-28.44-1.8-10.39,1.42-19.43,6.69-28.26,4.67-7.83,10-15.21,13.41-23.71,3.95-9.7,5.46-20.14,6.44-30.51,4.21-44.47,1.64-89.68-6.44-133.57-2.05-11.18-4.48-22.34-5-33.73a99.1,99.1,0,0,1,4.37-32.76c5.71-19.31,15.42-37.06,24.47-54.94,8.91-17.63,17.54-35.78,21.55-55.25,4.35-21.1,3.52-42.69,4.12-64.1.61-22.14,4.2-42.77,13.37-63,8.39-18.57,18.66-36.23,25.68-55.43,13.93-38.11,16.86-79.78,11.87-119.86-10.28-82.72-52.8-155.92-101-222.29q-9.3-12.81-18.88-25.42c-2.17-2.89-6.57-4.38-9.42-1.22-18.82,20.92-22.17,53.37-7.84,77.71,8.33,14.15,22.29,22.46,35.16,31.93a124.78,124.78,0,0,1,32.21,35.71c16.55,27,26,58.54,33.31,89.15,7.86,32.76,12.34,68,3.3,101-5,18.33-14.85,33.23-25.68,48.55-10,14.21-19.05,28.89-20.49,46.63L308.09,506c-16.13-56.33.39-115.14-6.87-172.38a160.07,160.07,0,0,0-30-75.35C256,237.37,237.7,218.36,226.07,195c-16.06-32.26-10.9-68.76-5.47-103,.81-5.14-3.88-9.33-8.82-6.77-30.32,15.73-39,52.59-34.59,84.12,5.69,40.91,34.21,73.61,52.38,109.39C249.91,318.88,253.18,363.86,255,408c.92,22.46,1.54,45,3.9,67.34,2.41,22.88,7.63,45,12.59,67.43,5.83,26.32,8.5,52.13,3,78.77-5.3,25.85-15.56,50.34-25.76,74.56l10-2.65c-26.41-32.63-26.16-77.67-24.44-117.46,2.08-47.94,4.33-95.74-1.31-143.56a407.75,407.75,0,0,0-14.36-71c-7.19-23.65-16.9-46.43-26.47-69.19A951.56,951.56,0,0,1,145.36,152c-13.47-54.45-22.7-109.86-30.1-165.44-1-7.54-13-7.64-12,0Z" transform="translate(36.67 27.26)"/><path class="cls-1" d="M220.83,1113.67c-9.42,44.58,30.34,75.7,40.33,115.73,1.86,7.49,13.44,4.32,11.57-3.19-4.82-19.31-15.9-35.87-25.71-52.91-9.73-16.89-18.83-36.49-14.62-56.44,1.6-7.53-10-10.75-11.57-3.19Z" transform="translate(36.67 27.26)"/><path class="cls-1" d="M133.59-19.45a518.32,518.32,0,0,0,7.75,53.77c1.59,8.33,3.3,16.63,5,24.92,1.41,6.81,2.93,15.19,10.49,17.73,6.4,2.15,12.29-1,14.34-7.29,2.58-8,3.79-16.68,4.95-24.94a231.82,231.82,0,0,0,1.35-52.91c-.68-7.63-12.69-7.7-12,0a227.24,227.24,0,0,1,0,40.91q-.91,10.11-2.83,20.09-1,5.14-2.22,10.24c-.22.92-.45,1.85-.68,2.77l.92-.14a7.32,7.32,0,0,1-1.29-2.77c-2.07-6.11-2.79-13-4.07-19.33-1.35-6.7-2.67-13.42-3.89-20.16C148.9,9.23,146.8-5,145.59-19.45c-.64-7.64-12.65-7.71-12,0Z" transform="translate(36.67 27.26)"/><path class="cls-1" d="M175.51-17.67a434.52,434.52,0,0,0,5.61,51.89c1.41,8.31,3,16.61,5,24.8,1.39,5.75,4.48,12.89,11.42,13.09,7.65.23,10.07-7.49,12.24-13.38a147.79,147.79,0,0,0,6.32-22.51,156.39,156.39,0,0,0,2-48.17c-.87-7.59-12.88-7.68-12,0a147.33,147.33,0,0,1-.32,37.88,145.3,145.3,0,0,1-3.94,18.48q-1.22,4.34-2.69,8.59c-.5,1.41-1,2.82-1.55,4.22q-.44,1.2-.93,2.37c-.84,1.38.1,1.74,2.81,1.06.11-.19-2.07-6.15-2.2-6.71q-1.08-4.75-2.06-9.52-2-10-3.58-20.12a407.18,407.18,0,0,1-4.1-42c-.36-7.69-12.36-7.73-12,0Z" transform="translate(36.67 27.26)"/><path class="cls-1" d="M225.25-8.22A498.1,498.1,0,0,0,230.82,60c.48,3.19,4.56,5,7.38,4.19,14.32-4.12,17.41-20.83,20.16-33.43a279.14,279.14,0,0,0,6.26-52.25c.2-7.73-11.8-7.72-12,0A261.66,261.66,0,0,1,247.94,22a183.55,183.55,0,0,1-4.54,19.18C242,45.71,240,51.22,235,52.64l7.38,4.19a475.3,475.3,0,0,1-5.14-65c-.09-7.72-12.09-7.74-12,0Z" transform="translate(36.67 27.26)"/><path class="cls-1" d="M279.71-6.95c-6.75,26.13-13.35,55.65-.33,81,6.37,12.39,17.18,21.54,25.91,32.15A116.12,116.12,0,0,1,325.56,143c3.77,11.3,4.59,23.83,11.94,33.66,6.86,9.18,19.45,11.43,26.54,1,3.46-5.12,4.4-11.64,5.19-17.62a92.94,92.94,0,0,0,.58-19.44,102.25,102.25,0,0,0-10.27-37.43c-6.43-13-16-23.1-26.26-33.11-8.36-8.13-20.37-18.93-18.2-31.94l-7.39,4.2c41.05,9.3,72.73,48.71,72.92,90.89.06,11.76-4.26,24.64,1.54,35.69,4.9,9.35,17.17,15.13,26.45,8.28,9-6.65,9.18-19.59,9.58-29.71A214.91,214.91,0,0,0,387.3,28.82L385.15,37c10.37-7.39,19.67,5.53,22.89,14.09,5,13.26,8.51,27.21,12.65,40.75l26.13,85.47c.7,2.3,3.16,4.68,5.78,4.4C479,178.9,475.48,145.64,472.2,127q-9.13-51.92-18.26-103.83l-2.76,6.77c4.52-2.83,9.09,3.84,11.16,7.22,4,6.54,6.05,14.53,8.47,21.75q7.77,23.26,13.29,47.19A495.62,495.62,0,0,1,493,155.54q1.53,12.15,2.48,24.39c.57,7.48,1.92,15.67,1.09,23.15-.44,3.91-2.83,4.61-6.41,4.74-4.53.17-9.09,0-13.62,0H447.66c-4.13,0-6.52,3.82-5.78,7.6,7,36,38.2,61,46.22,96.66,9,40-5.39,81.1-12.18,120.25-10.91,62.82-4.84,135.83,39.32,185.4a141.7,141.7,0,0,0,18.17,17c7.85,6.16,16.19,11.83,22.64,19.54,6.21,7.42,10.53,16.34,14.57,25.06q6.6,14.26,12.34,28.91a588.68,588.68,0,0,1,33,119.55c3.31,20,5.33,40.12,6.69,60.34,1.18,17.43,2.61,35.31,10,51.39,15.11,32.85,52.09,39.66,84.79,38.51,19.33-.68,39.42-2.43,57.92-8.41s34.5-17.17,50.7-27.78c33-21.59,70.41-34.57,110-35.76a213.67,213.67,0,0,1,29.39,1.19c7.67.82,7.61-11.18,0-12a219.7,219.7,0,0,0-113,18.11c-17.55,7.85-33,18.78-49.16,29-17.12,10.9-34.67,18-54.82,20.94-17.47,2.54-35.75,3.8-53.36,2.16-15.56-1.44-31.64-6.17-42.7-17.76-12-12.53-15.26-30.52-16.84-47.14-1.81-19.06-2.73-38.13-5.28-57.14A593.92,593.92,0,0,0,601.62,724a541.38,541.38,0,0,0-22.82-55.37c-4.18-8.62-9-16.95-15.37-24.15s-14.62-12.79-22.23-18.8c-52.07-41.13-63.28-112.85-55.91-175.2,4.57-38.69,18.27-76.27,17.43-115.58a120.12,120.12,0,0,0-13.58-54C481,265.4,470.08,251.54,462,236a87.19,87.19,0,0,1-8.53-23.77l-5.79,7.59h30.76c7.84,0,17.92,1.46,24.43-4,6.74-5.63,5.83-14.89,5.43-22.77Q507.53,178.51,506,164A517.88,517.88,0,0,0,479.62,47.69c-3.12-8.83-6.16-17.89-13.15-24.5-6-5.62-14-8.22-21.35-3.62a6.25,6.25,0,0,0-2.75,6.78q7.92,45.06,15.85,90.12c2.06,11.7,5.25,23.67,4.49,35.64-.4,6.3-2.24,16.78-10.11,17.62l5.79,4.41Q443.3,124.76,428.2,75.37c-4.24-13.86-7.06-30.58-16.49-42.06-7.64-9.31-22.08-14.16-32.62-6.65-2.61,1.86-4,5.23-2.15,8.21a204.08,204.08,0,0,1,25.61,65.95A197.48,197.48,0,0,1,406.31,137c.07,5.19-.07,10.39-.4,15.57-.28,4.3-.32,10.46-3.36,13.94s-7.33.56-9.35-2.55c-3.26-5-2.05-12.2-1.44-17.79a105.86,105.86,0,0,0-.76-30.11c-3.4-19.19-12.56-37.18-25.24-51.88-14.24-16.52-33.55-28.69-54.88-33.53-2.9-.65-6.82.88-7.38,4.19C299.59,58.39,320.21,73,334.56,88.1c16.22,17,24.61,40.7,23.41,64.12-.22,4.4-2.21,27.72-10.3,18.06-6.58-7.86-7-19.52-10-28.9a129.49,129.49,0,0,0-16.86-34.44C313.47,96.4,304,87.82,296.1,77.78c-18.77-23.86-11.78-54.6-4.82-81.54,1.93-7.48-9.64-10.67-11.57-3.19Z" transform="translate(36.67 27.26)"/><path class="cls-1" d="M323.45,4.06l11.37,15.19c1.94,2.59,5.19,3.92,8.21,2.16,2.55-1.5,4.1-5.6,2.15-8.21L333.81-2c-1.94-2.59-5.18-3.92-8.21-2.15-2.55,1.49-4.1,5.6-2.15,8.21Z" transform="translate(36.67 27.26)"/><path class="cls-1" d="M397.79-.19A73.84,73.84,0,0,1,422.62,17c5.33,5.62,13.8-2.88,8.49-8.48a82.19,82.19,0,0,0-27.26-19.09c-7-3-13.14,7.32-6.06,10.36Z" transform="translate(36.67 27.26)"/><path class="cls-1" d="M356.93-3.13a59.76,59.76,0,0,0,12.8,18c5.55,5.38,14-3.1,8.49-8.48A50.86,50.86,0,0,1,367.29-9.19c-1.35-3-5.61-3.67-8.21-2.15-3,1.77-3.51,5.25-2.15,8.21Z" transform="translate(36.67 27.26)"/><path class="cls-1" d="M369,242.55c39.57,60.87,44.59,137.15,27.07,206.29A333.23,333.23,0,0,1,378.64,500c-7.6,17.45-17.8,33.53-25.71,50.81a102.14,102.14,0,0,0-8.79,29c-1.45,10.81-1.27,21.69-1.37,32.57A204,204,0,0,1,333,674.06c-6.88,21.16-18.75,39.89-27.27,60.34-7.77,18.66-11.76,39.09-1.66,57.7,2.23,4.09,8,3.67,10.36,0l50.18-79.34-11-1.43c2.79,18.13-4,35.68-12.17,51.52-8.47,16.45-18.65,32-25.91,49.07a132.8,132.8,0,0,0-10.46,61.48c1.61,22,10.15,43.28,9.14,65.51-.94,20.52-9.8,39.79-18.5,58-4.24,8.89-10,18.17-12.39,27.79-2.42,9.88,2.63,16.28,9,23.12,12.44,13.38,16.63,31.86,18,49.59,1.53,20.44.4,41.14.13,61.61q-1.08,78.73-2.14,157.46c-.1,7.72,11.9,7.73,12,0l1.92-141.39c.3-21.95,1.16-44,.64-65.93-.41-17.73-2.4-35.8-10-52-3.88-8.33-9.57-14.51-15.48-21.36-3.75-4.36-2.72-8.21-.59-13.16s4.52-9.7,6.82-14.51c8.68-18.1,17.83-36.62,21.18-56.59,3.68-22-1.9-42.38-5.82-63.84a124.61,124.61,0,0,1,5.14-65.09C338,784.34,372,751.76,365.23,708.14c-.84-5.43-8.47-5.38-11-1.43L304.09,786h10.36c-9.08-16.73-2.9-35.8,4.44-52,8.07-17.8,18-34.55,24.45-53.08a207.9,207.9,0,0,0,11.26-60.44c.4-10.89-.1-21.8.69-32.67a89.87,89.87,0,0,1,8-31C371.18,539.57,381.4,523.5,389,506a352,352,0,0,0,17.75-50.69c9.16-34.67,13.06-71.05,9.93-106.83-3.47-39.74-15.54-78.47-37.35-112-4.19-6.45-14.58-.45-10.36,6.05Z" transform="translate(36.67 27.26)"/><path class="cls-1" d="M311.06,1037.72a82.94,82.94,0,0,1,24.32,33c5.84,14.77,8.55,31,10.77,46.71a334.52,334.52,0,0,1-.69,97.38c-1.16,7.55,10.4,10.81,11.57,3.19a353.41,353.41,0,0,0,.69-103.76c-2.36-16.61-5.33-33.75-11.82-49.3a93.33,93.33,0,0,0-26.36-35.7c-5.89-4.92-14.42,3.53-8.48,8.48Z" transform="translate(36.67 27.26)"/><path class="cls-1" d="M337,1032.36c14.92,8.86,24.88,23.25,33.07,38.19a324.55,324.55,0,0,1,22.88,52.52,342.84,342.84,0,0,1,17.86,113.68c-.1,7.73,11.9,7.73,12,0a354.62,354.62,0,0,0-11.56-94.41c-7.86-29.88-19.44-59.82-35.65-86.21-8.34-13.57-18.72-25.93-32.54-34.13-6.66-4-12.7,6.41-6.06,10.36Z" transform="translate(36.67 27.26)"/><path class="cls-1" d="M646,863c1.14,20.06,6.42,40.87,18.57,57.2,13.85,18.64,34.16,26.32,57.07,25.06,44-2.41,81.32-28.2,117.94-50.07,21.22-12.68,43.1-24.59,67.24-30.63,7.49-1.87,4.32-13.45-3.19-11.57-40.44,10.12-74.18,35.56-110,55.61-17.3,9.68-35.38,18.22-54.88,22.36-19.74,4.18-42.21,4.52-57.77-10.17S659.15,883.64,658,863c-.44-7.68-12.44-7.73-12,0Z" transform="translate(36.67 27.26)"/><path class="cls-1" d="M682.5,872.18c-.14,15.36,11.15,28.09,25.15,33.13,17,6.11,36,.91,52.07-5.65,29.73-12.15,55-32.23,82.66-48.12,15.42-8.85,31.6-16.06,49.17-19.31,7.58-1.4,4.37-13-3.19-11.57-28.61,5.29-53.57,20.82-77.62,36.4-12.14,7.86-24.24,15.82-37,22.7C760.4,887,745.53,894,730.25,895.62s-35.92-5-35.75-23.44c.07-7.73-11.93-7.73-12,0Z" transform="translate(36.67 27.26)"/><path class="cls-1" d="M721,862.78c9,10.38,24.33,11.24,36.44,6.38,14.09-5.65,26-16.51,38.52-24.93A629,629,0,0,1,881.41,796c7-3.27.9-13.61-6.06-10.37a629.78,629.78,0,0,0-77.79,43.16c-12,7.8-23.21,16.68-35.24,24.33-9.64,6.14-23.93,11.41-32.83,1.16-5.08-5.84-13.54,2.68-8.49,8.49Z" transform="translate(36.67 27.26)"/><path class="cls-1" d="M440.29,305.38a91.26,91.26,0,0,1-13.19-45.49l-7.6,5.79c17.77,4.81,24,24.19,26.92,40.42,1.93,10.71,2.3,21.62,2.83,32.46a377.57,377.57,0,0,1,.26,40.09c-1.55,27.05-10,51.4-21.8,75.56-11.55,23.55-23.25,46.82-32.55,71.39-5.26,13.89-10,28-14,42.31-3.38,12.09-5.79,26.07,2,37,2.61,3.68,7.81,4,10.36,0a1002.15,1002.15,0,0,0,55.33-99.51l-11.18-3c2,16.41-3.53,32.28-3.92,48.6-.38,15.91,5.77,29.14,17.1,40.11,11.18,10.82,23.5,20,33.79,31.83a188,188,0,0,1,26.73,40.6l8.21-8.21-49.19-29.12-23.75-14.05c-6.72-4-14-8.75-22.24-7.11-7.47,1.49-13.81,7.42-19.66,12-6.34,5-12.46,10.19-18.29,15.74a251.75,251.75,0,0,0-32.37,37.76,6,6,0,0,0,.94,7.27c10.46,8.81,22.54,4,33.21-1.86,6-3.27,11.69-6.76,18.46-8.24a49.63,49.63,0,0,1,21,.45c28.43,6.19,50,27.59,76.72,37.92,13,5,32.19,9.7,43.46-1.17H539.4c10.69,11,13.8,26.33,14.44,41.2a226.79,226.79,0,0,1-.32,22.88c0,.17-.1,3.91-.62,4,.94-.11-3-4.18-3.21-4.36a94.09,94.09,0,0,0-8.51-7.83c-23.21-18.8-52.79-25.78-82-28a412.24,412.24,0,0,0-45.29-.61c-3.39.11-8-.46-11.23.57-3.84,1.22-6.57,6.58-8.86,9.67Q386,752.85,379.21,764C360.76,794.1,347,827.9,340.46,862.66c-4.08,21.53-3.77,42.16-.18,63.71s4.43,42-4.62,62.42c-1.83,4.13.29,8.88,5.19,9,19,.57,34.47,13.33,46.94,26.49a292.17,292.17,0,0,1,34.68,45.3c20.65,32.78,35.79,68.63,48.78,105,7.33,20.55,14,41.33,20.64,62.11,2.34,7.33,13.93,4.2,11.57-3.19C479,1157,453,1076.3,396.82,1016.41c-14.86-15.83-33.43-29.91-56-30.59l5.18,9a102,102,0,0,0,8.81-50.5c-1.57-18-6.28-35.34-5.67-53.52,1.14-34.29,13.16-69.14,28.54-99.53a295.59,295.59,0,0,1,30.78-48.59l-4.24,1.76c33.79-1.41,69.29-2.21,101.48,9.76A102.75,102.75,0,0,1,527,765.13c7,4.69,12.12,11.17,18.69,16.25,7.27,5.61,16.69,3,19-6.16,2-7.86,1.36-17.23,1.21-25.27-.37-19.35-4.15-39.18-18.08-53.53a6.09,6.09,0,0,0-8.48,0c-5.31,5.12-15.24,2.87-21.65,1.31a97.51,97.51,0,0,1-23-9.3c-14.85-8-28.49-18.2-44-25-15-6.63-31.76-11-48.09-7.07-7.68,1.82-14.34,6-21.21,9.65-4.78,2.57-12.9,7.65-18,3.36l.94,7.27a237.19,237.19,0,0,1,28.63-33.54q7.73-7.5,16.11-14.31,4.43-3.59,9-6.94c2.63-1.9,6-5,9.44-5.09s6.7,2.17,9.53,3.81c3.7,2.14,7.36,4.35,11,6.53l21.2,12.55,44.1,26.1c5.45,3.23,10.75-3,8.21-8.21a200.26,200.26,0,0,0-25.36-39.19c-9.7-11.76-21-21.42-32.4-31.43-5.24-4.58-10.37-9.48-13.85-15.58-3.82-6.71-4.66-14.32-4.31-21.92.72-15.76,5.76-31.09,3.86-47-.62-5.23-8.28-9-11.18-3a1004,1004,0,0,1-55.33,99.5h10.36c-7.14-10-2.13-23.39,1-34q5.83-19.59,13.18-38.67c9.8-25.49,22.68-49.32,34.22-74,5.51-11.78,10.56-23.87,13.93-36.45a188.19,188.19,0,0,0,5.82-40.89c.58-14,0-28-.74-42-.56-10.46-1.24-20.9-3.2-31.22-3.86-20.25-13.5-41.66-35.07-47.51a6.06,6.06,0,0,0-7.59,5.79,103.62,103.62,0,0,0,14.83,51.55c4,6.61,14.35.58,10.36-6.06Z" transform="translate(36.67 27.26)"/><path class="cls-1" d="M396.7,705.05A404.16,404.16,0,0,1,473,720c7.42,2.21,10.59-9.37,3.19-11.57a421.07,421.07,0,0,0-79.53-15.4c-7.69-.74-7.64,11.26,0,12Z" transform="translate(36.67 27.26)"/><path class="cls-1" d="M478.22-7.3a386.68,386.68,0,0,1,59.11,189.09c.93,21.51,1,44.23-2.76,65.51-.11.57-.16,2.47-.65,2.78,1.17-.74-1-1.26-1.09-1.34-1.89-1.27-5.06-1.23-7.18-.91a16,16,0,0,0-10.84,7.5c-5.85,9.32-1.35,19.43,3.34,28.12,10.7,19.84,16.16,41.68,17.78,64.1,3.5,48.32-9.09,95.66-14.75,143.32-1.52,12.85-2.92,25.94-1.46,38.86a73.39,73.39,0,0,0,13.1,34.38c7.42,10.59,16.39,20.1,24.88,29.83l28.2,32.32c2.9,3.32,9.12,1.63,10-2.65,3.47-16.36,6.74-33.32,4.69-50.09a63.52,63.52,0,0,0-6.78-22.38c-4-7.4-9.86-13.45-15.8-19.28C566.72,520.75,558.39,509,556,492.93a61.8,61.8,0,0,1,9.16-42.81H554.78a932.11,932.11,0,0,1,54.54,89.09c7.63,14.26,13.53,28.81,13.23,45.24-.27,14.62-4.34,28.86-8.49,42.78-8.8,29.47-17.67,58.88-6.48,89.07,5.89,15.89,14.61,30.68,22.54,45.6,4.27,8,8.47,16.11,12.82,24.1,3.41,6.28,7.42,12.32,13.45,16.37,14.66,9.83,31.8.85,47.62,3.52a3.54,3.54,0,0,1,1.53.69c-.64-.6.64-.91-.76-.35s-2.85,1.34-4.34,1.89c-4.91,1.83-9.83,3.61-14.74,5.42l-29.49,10.83c-4.75,1.75-6.08,8.14-1.44,11a67.26,67.26,0,0,0,62,4.08c5.83-2.58,12.67-8.81,19.35-8.14,3.54.36,6.71,2.49,10,3.74A24.48,24.48,0,0,0,757,836.6c7.51-.67,14.1-4.61,19.93-9.14,13.53-10.51,25.9-22.84,38.66-34.27l45.62-40.88c5.77-5.16-2.74-13.63-8.48-8.48l-74.32,66.58c-5.23,4.69-10.51,10-17,12.81-7.61,3.32-12.59-.78-19.69-3C728,816,717.08,827.6,704.71,831.08a55.62,55.62,0,0,1-43.88-6.1l-1.43,11,26.72-9.82c7.89-2.9,17-5,24.29-9.29,6-3.49,9.41-10.66,5.16-16.91-4.09-6-12.17-6.77-18.79-6.53-7.85.28-15.63,2.11-23.51,1.82-8.19-.31-13.51-4.42-17.67-11.24-9.57-15.69-17.56-32.6-26.12-48.85-8-15.23-15.38-31-15.58-48.52-.17-15.49,4.06-30.57,8.45-45.29,4.44-14.89,9.25-29.72,11.27-45.19a88.85,88.85,0,0,0-6-46.43c-7.71-18.53-18.53-36-28.81-53.23q-16-26.75-33.7-52.41c-2.6-3.76-7.81-3.95-10.36,0-16.86,26-14.77,61.7,4.73,85.71,5.3,6.53,11.86,11.88,17.44,18.16A47.44,47.44,0,0,1,587.9,569.7c3.61,16.69-.06,34.33-3.54,50.72l10-2.65c-16-18.4-33.18-36.28-48.15-55.58-6.7-8.64-11.9-18-13.93-28.84-2.15-11.43-1.13-23.35,0-34.82,4.89-48.07,18-95.45,16-144.08-.91-21.66-4.72-43.3-13.18-63.34-2.1-5-4.48-9.73-7-14.46-2.2-4.06-6-10.07-3.28-14.68s6.67.06,10.86-.17c4.83-.26,8.19-3.88,9.69-8.22s1.6-9.24,2.09-13.74c.62-5.66,1.1-11.35,1.46-17q1.07-16.65.66-33.33a403.54,403.54,0,0,0-7-65.31,396.43,396.43,0,0,0-54-137.53c-4.12-6.51-14.5-.49-10.37,6.06Z" transform="translate(36.67 27.26)"/><path class="cls-1" d="M510.17,363.64a856.5,856.5,0,0,0-16.65,152.72c-.14,7.73,11.86,7.73,12,0a838.5,838.5,0,0,1,16.22-149.53c1.51-7.54-10.05-10.77-11.57-3.19Z" transform="translate(36.67 27.26)"/><path class="cls-1" d="M413.87,771.44a644.78,644.78,0,0,0-27.1,108.89c-2.88,18.32-5.27,36.86-6.34,55.39-.51,8.71,2.26,15.1,9.17,20.47s14.35,9.29,21.81,13.46c14.68,8.22,26.17,18,34.93,32.48,8.94,14.78,15.39,31.19,20.81,47.54a324.43,324.43,0,0,1,12.76,53.22c2.13,14,4.18,28.88,13.86,39.9,12.35,14.07,32,12.56,48.91,13.09a265.44,265.44,0,0,1,63.66,10c3.44,1,8-1.85,7.6-5.78-1.41-13.61-14.28-17.25-25-22.2a133.66,133.66,0,0,1-32.7-21.51,144.76,144.76,0,0,1-41.52-64,134.14,134.14,0,0,1-6.2-43.67l-10.24,4.24c10.46,8.81,17.3,20.58,25.21,31.54a293.4,293.4,0,0,0,90.4,82.21c3.82,2.24,9.21-.59,9-5.18-.6-15.47-7.64-29-14.88-42.35-7.38-13.61-15.51-29-11.17-44.93l-10,2.65a292.09,292.09,0,0,1,41.59,47.59,295.71,295.71,0,0,1,17,27.59c5,9.21,10.21,18.8,12.31,29.16,4.82,23.81-17.07,34.69-37.1,37.44-11,1.51-23.2,3.09-34.09.53-10-2.37-18.94-8.93-29.64-8.06-19.7,1.61-34.82,21.92-30,41.19,1.88,7.49,13.45,4.32,11.57-3.19-2.05-8.14,1.83-16.42,8.23-21.54,8.22-6.58,16.71-4.41,25.67-.7a71.91,71.91,0,0,0,33.46,5.2c11.3-.75,23.11-1.73,33.85-5.54,19.23-6.83,33.13-23.06,30.29-44.29-1.43-10.73-6.13-20.67-11-30.22a293.93,293.93,0,0,0-16.37-28,305.43,305.43,0,0,0-47.29-55.68,6.07,6.07,0,0,0-10,2.65c-4.41,16.15,1,32.16,8.33,46.58,7.11,14,16.66,27.68,17.29,43.89l9-5.18a284.93,284.93,0,0,1-63-50,276.47,276.47,0,0,1-25.55-31.28c-7.52-10.74-14.53-22-24.65-30.55-3.92-3.3-10.11-1.22-10.25,4.25-1.27,52.24,27,103.32,71,131.2A136.15,136.15,0,0,0,586.94,1150c4.12,1.76,14.42,4.53,15,10.06l7.59-5.79a281,281,0,0,0-53.43-9.63c-8.48-.69-16.94-.77-25.44-1-7.26-.16-15.06-.48-21.62-4-12.67-6.73-14.94-22.9-16.91-35.69a357.29,357.29,0,0,0-10.88-49.58,304.73,304.73,0,0,0-18.66-47.61c-6.73-13.49-15.34-26.5-27.25-36-6.49-5.16-13.66-9.22-20.89-13.25-6.47-3.59-15.27-7.32-20.1-13.11-2.58-3.09-2.07-6.8-1.8-10.57q.52-7.12,1.22-14.23c.86-8.94,1.9-17.87,3.17-26.77a643.18,643.18,0,0,1,28.5-118.3c2.52-7.32-9.07-10.46-11.57-3.19Z" transform="translate(36.67 27.26)"/><path class="cls-1" d="M435.14,783.18l-2.76,59.75c-.84,18.21-3.28,37.21-1.52,55.41,1.48,15.25,7.65,29,21.61,36.58,12.89,7,28,7.76,41,14.36a6.07,6.07,0,0,0,9-5.18c.34-14.59-4.31-28.31-9.43-41.77A381.37,381.37,0,0,1,479.61,861a324,324,0,0,1-9.9-87.7l-6,6a89.78,89.78,0,0,1,51.06,19.84c13.9,11.44,23.83,26.94,39.36,36.5,2,1.26,5.67,1.09,7.27-.93a324.08,324.08,0,0,0,30.09-45l-11.18-3,3.5,106,9-5.18c-31.77-14.12-47.33-48.93-76.87-66.44-3.69-2.19-9.38.56-9,5.18A923.88,923.88,0,0,0,526.18,955.7c1.34,6.06,9.85,5.33,11.57,0l8.42-26.2c1.41-4.36,2.68-8.78,4.22-13.1,1.36-3.84,2.27-4.64,6-2.51,6.76,3.87,12,12.11,17,17.86l19,21.64,1.21-9.43c-6.27,3.73-14.69.83-21.56,1-8.71.26-15.69,4.12-19.47,12.17-9.12,19.42-14.1,41-16.66,62.17a5.81,5.81,0,0,0,3,5.18c9.26,4.93,19.31.88,26.26-6.15,6.19-6.26,10.41-18.69,20.53-19.24,10.3-.56,19.85,8.25,26.24,15.36,6.66,7.42,11.85,16,17,24.48a248.14,248.14,0,0,0,16.42,24.43c6.16,7.81,13,15,19.67,22.41,13.75,15.39,25.63,32.12,24.29,53.74-1.58,25.31-16.9,48.11-25.25,71.49-2.6,7.29,9,10.43,11.57,3.19,7.94-22.23,21-43,24.75-66.63,3.57-22.69-4.08-42.25-18-59.87-6.48-8.18-13.75-15.69-20.67-23.5a183.2,183.2,0,0,1-18.42-24.85c-10.83-17.4-21.48-37.51-40.27-47.57-11.15-6-24-6.64-33.7,2.3-5.42,5-14.71,25.19-24.38,20l3,5.18c2.28-19,6.9-38.75,15-56.11,3.38-7.22,9.27-6.44,16.28-5.9s14.11.77,20.45-3c3.5-2.08,3.75-6.54,1.22-9.43l-23.52-26.85c-6.13-7-12.74-16.16-22.74-17.36-11-1.32-14.52,8.66-17.27,17.2l-11.13,34.62h11.57a901,901,0,0,1-18.81-126.26l-9,5.18c29.56,17.52,44.83,52.2,76.87,66.44,3.91,1.74,9.19-.21,9-5.18l-3.5-106c-.19-5.75-8.21-8.42-11.18-3a307.63,307.63,0,0,1-28.21,42.61l7.27-.94c-16.32-10.05-26.68-27.25-42.06-38.62a102.36,102.36,0,0,0-54.42-19.36c-3.29-.21-5.93,2.91-6,6a337.06,337.06,0,0,0,9.43,87.28,346.8,346.8,0,0,0,13.09,41.5c5.18,13.55,10.65,27.24,10.31,42l9-5.18c-12.07-6.12-25.68-7.41-38-12.83-14.26-6.29-18.72-19.27-19.12-34-.47-17.32,1.23-34.84,2-52.14l2.62-56.76c.36-7.72-11.64-7.7-12,0Z" transform="translate(36.67 27.26)"/><path class="cls-1" d="M846.31,946.77c-28.76,14.63-58,29.24-90.1,34.87-33,5.79-67,2.37-100.08-.79-4.48-.43-7.56,5.43-5.18,9,17.57,26.57,35.24,53.31,48.36,82.44,13.32,29.58,21.09,62.14,20.21,94.69-.48,17.69-3.91,35.33-11.85,51.24-1.85,3.69.31,9.46,5.18,9a97.13,97.13,0,0,0,23.2-4.75c6.17-2.13,12.72-4.66,16.77-10,4.4-5.82,4.59-13.32,5.07-20.31q.89-13.12,1.21-26.27c.4-16.47,1.38-34-2.43-50.16-3.58-15.19-13.2-27.65-20.83-40.94a156.32,156.32,0,0,1-18.73-51.47l-7.38,7.38c24.7,8.66,51.2,14,77.43,14.15,13.32.09,25.29-3.23,37.86-7.2a97.46,97.46,0,0,1,39-4.49l-5.18-9c-20.22,30.56-61.72,32.93-94,40.91-3.5.86-5.84,5.67-3.58,8.81A182.45,182.45,0,0,1,794,1203.52c-.84,6.5,8.19,7.29,11.18,3,5.7-8.13,14-13.9,18.68-22.88s6.23-19.18,6-29.21c-.58-22.29-10.5-43.25-9.8-65.63l-4.4,5.78a112.38,112.38,0,0,1,23.81-1.78,109.52,109.52,0,0,1,11.45.93c1.92.27,3.83.6,5.73,1,.93.18,1.86.37,2.78.58,1.42.72,1.53.36.34-1.06-.84,7.67,11.17,7.61,12,0,1.26-11.41-16.31-12.07-23.81-12.85a125,125,0,0,0-35.49,1.64c-2.62.48-4.33,3.32-4.41,5.79-.67,21.4,8.29,41.26,9.65,62.39.58,9.15-.09,18.87-4.54,27.09-4.6,8.48-12.81,14.32-18.32,22.18l11.18,3a192.41,192.41,0,0,0-34.34-135.71l-3.59,8.82c36.13-8.94,78.64-12.42,101.13-46.42,2.73-4.13-1-8.64-5.18-9a102,102,0,0,0-37.8,3.57c-12.48,3.6-24,8-37.21,8.12-25.8.24-51.86-5.21-76.12-13.72-4.72-1.66-8.08,3.26-7.38,7.38a165.12,165.12,0,0,0,18.61,52c8.88,16,20.45,30.1,22.36,49,2,19.37.88,39.46-.25,58.86-.44,7.48.86,17.66-6.71,21.83-7.9,4.36-17.81,6.29-26.7,7.09l5.18,9c15-30,15.8-64.34,10.54-96.89-5.46-33.79-19.25-65.26-36.31-94.7-9.68-16.7-20.31-32.8-31-48.89l-5.18,9c34.33,3.27,69,6.36,103.27.36,33-5.79,63.35-21,93-36.08,6.89-3.5.82-13.86-6.06-10.36Z" transform="translate(36.67 27.26)"/><path class="cls-1" d="M772.6,1016.58a140.48,140.48,0,0,0,88.06-20.32c6.55-4,.54-14.44-6.06-10.36a129.85,129.85,0,0,1-82,18.68c-7.67-.79-7.62,11.21,0,12Z" transform="translate(36.67 27.26)"/><path class="cls-1" d="M257.76,213.6c5.67,8.77,12.64,16.56,18.25,25.43s11.15,17.57,18.72,24.78c5.6,5.32,14.09-3.15,8.49-8.49-7.26-6.91-12.4-15.35-17.74-23.75s-12-15.73-17.35-24c-4.18-6.46-14.58-.45-10.37,6.06Z" transform="translate(36.67 27.26)"/><path class="cls-1" d="M313.78,319.83a569.17,569.17,0,0,1,2.82,82.67c-.29,7.72,11.71,7.71,12,0a569.17,569.17,0,0,0-2.82-82.67c-.82-7.6-12.83-7.68-12,0Z" transform="translate(36.67 27.26)"/><path class="cls-1" d="M-10.86,450.77a76.2,76.2,0,0,1,32.83,2c10.85,3.1,20.31,9,29.73,15,6.52,4.18,12.55-6.21,6.06-10.37C47,450.52,36,444.06,23.49,440.76A90.54,90.54,0,0,0-14,439.2c-7.6,1.2-4.37,12.77,3.19,11.57Z" transform="translate(36.67 27.26)"/><path class="cls-1" d="M527.18-7.29c19,74.56,37.8,149.85,42,227,2.05,37.68,1.24,75.36,6.89,112.79a434.32,434.32,0,0,0,27.77,100.27,449,449,0,0,0,22.43,46.84c8.29,14.94,18.24,28.68,27.08,43.25,9.74,16.07,8.86,34.74,9.38,52.91q.82,29.57.93,59.14.11,29.08-.52,58.17c-.3,14-1.19,29.05,5.47,41.85,7.91,15.23,24.8,16,39.94,18.25,18.47,2.73,37.18,4.93,55.87,3.77,30.81-1.91,59.12-13.95,81-35.94A129,129,0,0,0,882,646a110.35,110.35,0,0,0,.43-21.27c-.58-7.65-12.58-7.72-12,0,4.18,56-37.47,109.42-92.82,118.77-17.92,3-36.43,1.87-54.37-.32-9.1-1.1-18.18-2.51-27.22-4-6.87-1.14-12.83-2.88-16.48-9.21-6.65-11.55-4.6-27.12-4.35-39.82q.57-28.59.45-57.19-.1-28.1-.9-56.19c-.47-17.15.4-35.66-6.69-51.68-3.24-7.32-7.94-13.78-12.38-20.39q-7-10.45-13.44-21.32A426.74,426.74,0,0,1,589.92,343c-6.55-35.61-6.84-71.49-8.07-107.55-2.52-74.27-18.24-146.9-36.22-218.74q-3.4-13.59-6.88-27.18c-1.9-7.48-13.48-4.31-11.57,3.19Z" transform="translate(36.67 27.26)"/><path class="cls-1" d="M555.56-21.6c-4.34,31.33,12.8,59.72,20.81,89,8.43,30.84,11.74,62.71,14.35,94.49s5,63.51,9.66,95.06a837.71,837.71,0,0,0,49.45,184.49c5.86,14.82,12,29.58,18.93,43.94,6.79,14.06,15.77,27.41,20,42.54,4.48,15.82,4.56,32.76,5,49.08q.62,25.13-.54,50.26-1.17,25.61-4.19,51.09c-1.41,11.92-4.18,24.83,0,36.54a23.27,23.27,0,0,0,9.71,12.45c6.36,3.79,13.74,3.24,20.73,2,16-2.78,32-6.48,47.75-10.32q24.29-5.9,48.23-13c12.48-3.72,27.76-6.44,37.79-15.37A19.2,19.2,0,0,0,860,675.93c-.1-7.72-12.1-7.74-12,0,.06,4.94-4.62,7.65-8.58,9.61-6.45,3.19-13.8,4.89-20.66,7q-22.05,6.75-44.4,12.44-23.28,5.92-46.83,10.69c-6.3,1.27-15.36,4.65-21.62,1.94-4.18-1.81-5.78-6.43-6.51-10.59-2.23-12.72,1.56-26.76,2.87-39.39q2.41-23.54,3.28-47.2.88-24.63.08-49.29c-.49-14.86-1-30.09-4.73-44.56-3.87-14.83-12-27.86-18.89-41.41-6.73-13.28-12.58-27-18.16-40.82a835.46,835.46,0,0,1-29.46-86.12c-16.61-58.84-25.53-118.7-30.31-179.55-2.66-33.81-5.24-67.83-12.75-101-3.68-16.19-9-31.71-14.74-47.25s-11.75-32.06-9.43-48.84c.45-3.23-.78-6.4-4.19-7.38-2.8-.8-6.93,1-7.38,4.19Z" transform="translate(36.67 27.26)"/><path class="cls-1" d="M575.24-14.58c14.81,46,31,91.73,43,138.53,5.83,22.74,10.45,45.85,12.47,69.26,2.1,24.25,1.67,48.63,3.07,72.92A291.23,291.23,0,0,0,645.93,336c6.85,22.14,15.9,43.5,24.78,64.88,9.06,21.83,18.45,43.53,25.92,66a522.88,522.88,0,0,1,17.42,66.66,520.57,520.57,0,0,1,6.13,154,5.79,5.79,0,0,0,3,5.18c11.71,5.54,24.09,4.26,36.23.74,13.17-3.81,26.08-8.75,39-13.18l81.05-27.73c7.26-2.48,4.14-14.08-3.19-11.57l-75.46,25.81c-12.38,4.24-24.74,8.52-37.14,12.71-10.71,3.62-23.54,8-34.48,2.86l3,5.18a531.37,531.37,0,0,0-3.13-137.25c-7-46-20.76-89.89-38.58-132.82-18.22-43.91-38.83-87.95-43.54-135.82-2.38-24.22-2-48.59-3.21-72.87A419.46,419.46,0,0,0,634,138.28c-11.81-53-30.55-104.46-47.17-156-2.36-7.32-14-4.19-11.58,3.19Z" transform="translate(36.67 27.26)"/><path class="cls-1" d="M601.77-7.85c21.83,40.26,34.77,84.34,47.44,128.13,6.54,22.59,12.66,45.05,14,68.65,1.28,23.2-.46,46.42-.58,69.63-.12,23,1.72,45.89,8.37,68,6.33,21.05,15.87,41,25.31,60.74,19.14,40.09,34.7,81.21,44.43,124.64a538.57,538.57,0,0,1,12,150.17c-.23,3.73,4,7,7.59,5.78a611.86,611.86,0,0,1,96-24.83c7.59-1.32,4.37-12.88-3.19-11.57a611.86,611.86,0,0,0-96,24.83l7.6,5.79a551.48,551.48,0,0,0-49.61-263c-9.26-20.12-19.57-39.8-27.37-60.56a203.78,203.78,0,0,1-13-66.63c-.67-23.54,1.23-47.06.87-70.59-.36-23.76-4.23-46.61-10.59-69.46C651.18,82.15,636.82,31.64,612.13-13.91c-3.68-6.79-14-.74-10.36,6.06Z" transform="translate(36.67 27.26)"/><path class="cls-1" d="M628.81-10.94C629.39,13,644,32.16,655,52.31c11.12,20.33,18.68,42.34,23.77,64.9,10.45,46.28,10.71,94.11,11.63,141.31.47,23.88-.51,49.09,6.89,72.09s24,41.21,36,61.83c12.55,21.68,23,45.08,32.07,68.39,5,12.68,6.78,25.13,6.75,38.7,0,13.11-.32,26.21-.2,39.32q.21,22.83,1.25,45.63c.53,11.36-.62,25.82,6.34,35.61,8.22,11.56,22.15,6,33.82,5.15a123.62,123.62,0,0,1,43.5,4.51c7.44,2.13,10.61-9.44,3.19-11.57a135.51,135.51,0,0,0-36.46-5.3,131.77,131.77,0,0,0-18.3,1.24c-4.47.6-11.8,3.47-15.45-.26-2.61-2.65-3.23-7.39-3.6-10.92-.69-6.44-.79-13-1.08-19.46q-.92-20.31-1.17-40.66c-.16-13.16,0-26.31.13-39.46.14-12.53-.36-25.06-4.09-37.11-3.57-11.55-8.89-22.63-13.71-33.69-4.9-11.23-10-22.41-15.59-33.29a296.85,296.85,0,0,0-18.56-31.06c-6.51-9.53-13.32-18.92-18.51-29.26-10.86-21.6-10.46-46.51-11-70.09-1-46.15-1-92.61-8.95-138.22-4.36-24.91-11.37-49.34-22.14-72.26C666.12,46.81,659.34,36.07,653,25S641.13,2.1,640.81-10.94c-.19-7.71-12.19-7.74-12,0Z" transform="translate(36.67 27.26)"/><path class="cls-1" d="M657.4-5.29c5.35,18.76,17,34.62,25.53,52,8.36,17.07,14.4,35.21,19,53.63,9.57,38.33,13,77.88,16.8,117.1,2.13,21.78,4.19,43.57,6.36,65.34,2,20.39,3.78,41.13,10.78,60.54,6.91,19.13,17.59,36.53,27.91,53.95l32.56,54.93c3,5,6.74,10.09,9,15.49,2.18,5.21,3.37,11.15,4.47,16.67A122,122,0,0,1,811.74,518c-.87,11-3.86,21.43-7.22,31.92-3.43,10.73-6.52,21.72-5.33,33.09.31,3,2.5,6.29,6,6a98.84,98.84,0,0,1,42.09,5.64c7.27,2.64,10.4-9,3.19-11.57A107.34,107.34,0,0,0,805.19,577l6,6c-1.06-10.08,1.59-19.51,4.63-29s5.8-18.87,7.13-28.78a134.07,134.07,0,0,0-5.47-59c-3.19-9.83-10-18.83-15.3-27.69l-16.53-27.89C775,392.71,763.71,375,754.46,356.34c-9.45-19.06-13.73-39-16-60.06-2.33-21.65-4.29-43.34-6.39-65-3.87-39.94-7-80.25-15.25-119.6A315.25,315.25,0,0,0,698,51c-8.7-20.17-23-38.21-29-59.43-2.11-7.42-13.7-4.27-11.58,3.19Z" transform="translate(36.67 27.26)"/><path class="cls-1" d="M691.48.5c9.33,20.3,21.07,39.5,30.13,59.9,4.45,10,3.52,21.81,5,32.54a216.2,216.2,0,0,0,7.15,33.2c2.21,7.38,13.79,4.24,11.57-3.19a201.51,201.51,0,0,1-7.17-33.47c-1.38-11.35-.81-22.84-5.44-33.5-9.12-21-21.27-40.71-30.85-61.53-3.22-7-13.56-.92-10.36,6.05Z" transform="translate(36.67 27.26)"/><path class="cls-1" d="M735.39,124.3a141.09,141.09,0,0,0-.29,43.56c2.24,14.79,7.53,27.8,13.43,41.4,1.69,3.89,1,5.7-1.26,9.16a77.08,77.08,0,0,0-4.88,8,50,50,0,0,0-5.55,19.07,30.08,30.08,0,0,0,3.67,16.94c3,5.29,8.53,8.31,11.79,13.3,1.86,2.83,1,5.77.67,8.94a47.86,47.86,0,0,0-.15,9.27,54.21,54.21,0,0,0,5.41,19.35,51.81,51.81,0,0,0,10,13.66c.94.93,2.56,2,3.13,3.22.78,1.7.06,3.89-.14,5.63a33.65,33.65,0,0,0,.31,10.69,31.68,31.68,0,0,0,8.5,15.79c2.46,2.46,4.54,3.27,4.85,6.92.3,3.46.37,6.72,2.23,9.81a19,19,0,0,0,5.6,5.53c1.75,1.25,4.37,2.28,5.65,4.07,1.61,2.27,1.52,5.81,2,8.45a69,69,0,0,0,3,11.27,75.9,75.9,0,0,0,11.05,20.34c4.59,6,11.26,10.59,12,18.56.75,7.73,1,15.05,3.71,22.47a67.8,67.8,0,0,0,11,19.43c4.8,6,13.24-2.5,8.48-8.49a51.15,51.15,0,0,1-9-17.2c-2-6.75-1.64-13.48-2.75-20.34-1-6.31-4.55-11-8.78-15.58a71.24,71.24,0,0,1-11.93-16.91,66.09,66.09,0,0,1-5.63-18.39c-1.09-6.58-3.06-11.3-8.65-15.24-1.56-1.1-3.68-1.95-4.94-3.4-1.7-2-1.09-4.83-1.39-7.28-1-7.7-7.24-10-10.92-16-3.3-5.39-2.72-10.49-2.23-16.49.68-8.3-3.9-11.91-9-17.53a38.9,38.9,0,0,1-8.23-14.79c-2.11-7-1.35-13.24-.92-20.4.34-5.68-1.6-10.41-5.31-14.68-3.93-4.53-9.21-7.72-10.8-13.87-1.35-5.22-.24-10.8,1.57-15.77,2.38-6.53,7.61-11.55,9.87-18,2.61-7.44-1.06-13.5-4.13-20.12a121.18,121.18,0,0,1-8-23.52,124,124,0,0,1-1.7-47.56c1.2-7.56-10.36-10.81-11.57-3.19Z" transform="translate(36.67 27.26)"/><path class="cls-1" d="M722.26-9.42l26.32,56.75c2,4.4,4.39,8.78,6,13.35,1.75,4.91,1.89,9.91,2.16,15.06l1.57,30.66c.49,9.61.49,19.45,2.37,28.92a47.15,47.15,0,0,0,4.12,11.88c2.12,4.23,3.84,7.23,3.56,12.11a61.11,61.11,0,0,0,3.18,24.1c2.57,7.5,6.05,14.65,8.51,22.18s3.53,15.06,1.09,22.84c-2.3,7.37-6.35,14.09-9.2,21.26-2.68,6.76-4.12,14.27-2.11,21.42,2.34,8.3,9,13.74,13.53,20.72,9.67,14.78,12.07,33.41,19.16,49.44,8.1,18.3,18.73,35.57,28.44,53,10.94,19.66,21.73,39.41,32.85,59,10.16,17.86,21.33,35.36,36.32,49.59,5.6,5.31,14.1-3.16,8.49-8.49-13.23-12.55-23.21-27.7-32.3-43.41-10-17.29-19.51-34.88-29.22-52.34s-19.89-34.79-29-52.6a165.78,165.78,0,0,1-10.76-25.88c-2.58-8.15-4.88-16.38-8.28-24.24-3.54-8.18-8.82-14.31-14.06-21.36-4.87-6.55-4.74-12.91-2-20.32,2.68-7.24,6.72-13.9,9.26-21.21a44,44,0,0,0,1.32-23.44c-3.05-15.15-13.53-28.85-13.53-44.62,0-4.11.75-8.11,0-12.2-.81-4.56-3.37-8.2-5.27-12.32-3.86-8.37-3.67-18.11-4.14-27.11l-1.77-34.62c-.27-5.35-.32-10.8-1.33-16.07-.94-5-3.18-9.6-5.29-14.16q-14.82-32-29.67-64c-3.25-7-13.59-.91-10.36,6.06Z" transform="translate(36.67 27.26)"/><path class="cls-1" d="M756.55-11.83c-1,11.48,4.52,22.7,13.58,29.63A32.56,32.56,0,0,0,784.06,24l1.31.19c1.64.51,1.73.36.29-.47.05,1.11-.1,2.26-.16,3.37-.24,4.57-.53,9.14-.79,13.71-.87,15-2.33,30.06-2.61,45.07-.07,3.3.17,6.36,2,9.21,1.09,1.7,3.71,3.14,4.41,5,.9,2.42-1.2,7-1.27,9.62a26.64,26.64,0,0,0,1.31,8.58c1.83,5.72,5.16,10.76,7.8,16.11,3.23,6.58,3.36,13.16,2.61,20.35-.69,6.59-1.8,13.1-1.41,19.75a96.38,96.38,0,0,0,3.33,19.14c3.19,12,8.14,23.79,9.4,36.22,1.22,12-4,23-3.68,34.91.18,6.34,2.33,12.24,7,16.62,2.88,2.68,5.69,4.53,7.81,8,1.94,3.15,3.62,6.47,5.41,9.71l25.6,46.3c3.74,6.76,14.1.71,10.36-6.06L841,299.85c-3.29-6-6.29-12.28-10.06-18a32,32,0,0,0-6.39-7c-2.25-1.85-4.42-3.42-5.37-6.3-1.62-4.86-.05-10.68.95-15.48,1.27-6.11,2.53-12.2,2.43-18.47-.21-12.21-4.07-23.92-7.6-35.5-3.74-12.31-6.35-24-4.9-36.92.76-6.79,1.86-13.49,1-20.34-.8-6.38-3.46-11.93-6.48-17.53-2.42-4.48-5.54-9.32-5.35-14.62.25-6.7,3-12.16-2-18-2-2.37-3-2.53-3.12-5.8-.12-3.87.45-7.89.68-11.76l1.3-22.53c.47-8.16,1-16.33,1.42-24.49.37-7.1-1.36-12.78-8.94-14.48-6.15-1.38-11-3-15.14-8.11a22.29,22.29,0,0,1-4.87-16.32c.67-7.69-11.33-7.64-12,0Z" transform="translate(36.67 27.26)"/><path class="cls-1" d="M796.54-5.69A171.46,171.46,0,0,1,809.46,23c1.58,4.65,3,9.38,4.15,14.15.67,2.72,1.27,5.46,1.75,8.23.23,1.31.43,2.63.59,3.95.09.81-.27,3.65.92,2.22l4.25-1.76,3,1.83v6.05l.36-.69-11.18-3c.81,9.34-2,18.44-1.7,27.75a29.67,29.67,0,0,0,2.89,12.68c2,4,6.36,6.55,8.15,10.53,3.89,8.66-1.29,20.4-7.29,26.63-5.74,6-13.43,13.74-8.3,22.6,2.12,3.67,6.29,5.46,9,8.64,3,3.48,4.77,7.85,6.2,12.15,3.26,9.88,5.55,20.17,8,30.26,2.79,11.32,5.32,22.73,7.16,34.25,1.75,11.05,2.48,21.92,7.14,32.25,5,11.11,12,21.56,18.6,31.76q10.37,16,21.93,31.12c4.61,6.06,15,.09,10.36-6.06a486.14,486.14,0,0,1-35.94-54.06A67.19,67.19,0,0,1,853,260.34c-1.66-5.65-2.22-11.51-3-17.32-1.5-10.92-3.62-21.73-6.11-32.47q-3.84-16.59-8.38-33c-2.22-8-5-16.19-10.52-22.64a30.09,30.09,0,0,0-4.76-4.47c-1.84-1.42-3-1.5-2.33-3.63,1.09-3.74,6.7-7.28,9.06-10.3a40.6,40.6,0,0,0,8.66-25c0-5.43-1.1-11-4.44-15.34-3-3.95-6.59-6.43-7.4-11.68-1.54-10,2.4-20.31,1.52-30.46-.48-5.46-8.21-8.74-11.18-3-3.64,7,5,14.86,11.21,9.11,5.54-5.12,2-16.1.67-22.43A180.11,180.11,0,0,0,806.9-11.75c-3.77-6.74-14.14-.7-10.36,6.06Z" transform="translate(36.67 27.26)"/><path class="cls-1" d="M823.75-15.44c-.63,8-1,16.2,1.86,23.85,2.74,7.27,7.74,13.53,12.21,19.8q15.06,21.14,31.23,41.46c4.79,6,13.24-2.5,8.48-8.49Q863,42.79,849.28,23.7c-4-5.65-8.74-11.34-11.69-17.66-3.14-6.74-2.41-14.3-1.84-21.48.61-7.7-11.39-7.66-12,0Z" transform="translate(36.67 27.26)"/><path class="cls-1" d="M558.1,371.8A110.77,110.77,0,0,0,573.29,426c3.9,6.66,14.28.63,10.36-6.06A98.13,98.13,0,0,1,570.1,371.8c-.13-7.72-12.13-7.74-12,0Z" transform="translate(36.67 27.26)"/><path class="cls-1" d="M163.48,906.43c-.67,8.13,3.28,18.2,12.94,18.07S190,911.92,188.88,904c-.47-3.21-4.54-5-7.38-4.19-3.45.95-4.66,4.16-4.19,7.38a7.05,7.05,0,0,1-1,3.51,15.48,15.48,0,0,1-1.46,2.54c-.3-.1,1.25-.65,1.32-.8s-.26-.52-.49-1.06c-.61-1.5-.32-3.43-.19-5,.26-3.24-2.95-6-6-6-3.47,0-5.74,2.75-6,6Z" transform="translate(36.67 27.26)"/><path class="cls-1" d="M733,788.08c5.49,6.81,12.11,20.18,22.69,16.26,4.41-1.64,8.37-5.49,11.92-8.49a141.48,141.48,0,0,0,12.59-12.14c5.24-5.66-3.23-14.17-8.48-8.48a132.1,132.1,0,0,1-16.84,15.58c.48-.37-3.57,2.55-2.34,2.48-.63,0-2.51-3.08-3.06-3.76l-8-9.93c-4.84-6-13.29,2.52-8.49,8.48Z" transform="translate(36.67 27.26)"/><path class="cls-1" d="M189.2,330.09c12.56,0,24.59-11,24-24s-10.54-24-24-24c-12.55,0-24.58,11-24,24s10.55,24,24,24Z" transform="translate(36.67 27.26)"/><path class="cls-1" d="M145.16,709.81c12.56,0,24.58-11,24-24s-10.54-24-24-24c-12.55,0-24.58,11-24,24s10.55,24,24,24Z" transform="translate(36.67 27.26)"/><path class="cls-1" d="M440.89,1009.56c12.56,0,24.58-11,24-24s-10.54-24-24-24c-12.55,0-24.58,11-24,24s10.55,24,24,24Z" transform="translate(36.67 27.26)"/><path class="cls-1" d="M630.91,956c12.55,0,24.58-11,24-24s-10.55-24-24-24c-12.55,0-24.58,11-24,24s10.55,24,24,24Z" transform="translate(36.67 27.26)"/><path class="cls-1" d="M664.36,689.74c12.56,0,24.58-11,24-24s-10.54-24-24-24c-12.55,0-24.58,11-24,24s10.55,24,24,24Z" transform="translate(36.67 27.26)"/><path class="cls-1" d="M578.72,343.16c12.56,0,24.58-11,24-24s-10.54-24-24-24c-12.55,0-24.58,11-24,24s10.55,24,24,24Z" transform="translate(36.67 27.26)"/><path class="cls-1" d="M495.76,228.08c12.55,0,24.58-11,24-24s-10.55-24-24-24c-12.56,0-24.58,11-24,24s10.54,24,24,24Z" transform="translate(36.67 27.26)"/><path class="cls-1" d="M320.46,572c12.55,0,24.58-11,24-24s-10.55-24-24-24c-12.55,0-24.58,11-24,24s10.54,24,24,24Z" transform="translate(36.67 27.26)"/><path class="cls-1" d="M313.77,1172.81c12.55,0,24.58-11,24-24s-10.55-24-24-24c-12.56,0-24.58,11-24,24s10.54,24,24,24Z" transform="translate(36.67 27.26)"/><path class="cls-1" d="M442.67,696c12.56,0,24.58-11,24-24s-10.54-24-24-24c-12.55,0-24.58,11-24,24s10.55,24,24,24Z" transform="translate(36.67 27.26)"/><path class="cls-1" d="M37.12,361.21c12.56,0,24.58-11,24-24s-10.54-24-24-24c-12.55,0-24.58,11-24,24s10.55,24,24,24Z" transform="translate(36.67 27.26)"/><path class="cls-1" d="M110.39,1078.54c12.55,0,24.58-11,24-24s-10.55-24-24-24c-12.56,0-24.58,11-24,24s10.54,24,24,24Z" transform="translate(36.67 27.26)"/><path class="cls-1" d="M778.37,268.41c12.55,0,24.58-11,24-24s-10.55-24-24-24c-12.56,0-24.58,11-24,24s10.54,24,24,24Z" transform="translate(36.67 27.26)"/></svg>